<?xml version="1.0" standalone="no"?>
<!DOCTYPE svg PUBLIC "-//W3C//DTD SVG 20010904//EN"
 "http://www.w3.org/TR/2001/REC-SVG-20010904/DTD/svg10.dtd">
<svg version="1.0" xmlns="http://www.w3.org/2000/svg"
 width="991.000000pt" height="991.000000pt" viewBox="0 0 991.000000 991.000000"
 preserveAspectRatio="xMidYMid meet">
<metadata>
Created by potrace 1.14, written by Peter Selinger 2001-2017
</metadata>
<g transform="translate(0.000000,991.000000) scale(0.100000,-0.100000)"
fill="#000000" stroke="none">
<path d="M2575 8979 c-237 -15 -334 -45 -498 -152 -168 -109 -391 -315 -506
-465 -141 -187 -264 -391 -420 -699 -168 -331 -226 -407 -551 -721 -247 -240
-383 -392 -476 -532 -120 -182 -127 -224 -122 -685 4 -317 5 -344 26 -405 59
-176 263 -454 563 -765 187 -195 283 -335 418 -608 84 -171 175 -318 281 -452
110 -140 522 -533 681 -650 240 -177 983 -590 1249 -695 185 -73 495 -215
1005 -462 597 -290 835 -387 1015 -413 153 -22 396 -75 852 -185 666 -160 697
-163 1588 -157 734 4 786 8 958 69 142 50 359 168 481 262 149 115 349 392
407 566 24 70 24 253 1 560 -31 400 -41 762 -41 1475 -1 769 0 794 54 955 15
47 91 211 167 365 206 414 206 418 201 898 -4 302 -6 339 -26 412 -55 202
-194 387 -406 539 -73 52 -157 147 -200 226 -39 71 -75 223 -85 364 -12 150
-33 211 -112 315 -72 96 -150 170 -297 279 -436 324 -825 476 -1512 591 -928
155 -1439 182 -3415 180 -632 -1 -1208 -6 -1280 -10z m2150 -209 c914 -17
1615 -54 2020 -106 214 -27 357 -64 326 -83 -70 -44 -1192 8 -1711 79 -445 60
-946 64 -1268 9 -289 -49 -677 -179 -952 -320 -351 -179 -1020 -627 -1020
-682 0 -18 60 3 118 39 31 20 109 74 172 119 440 317 1150 655 1572 749 430
96 706 94 1641 -9 533 -58 721 -65 1497 -56 362 5 466 -2 627 -39 298 -70 827
-354 1052 -566 115 -108 155 -198 172 -389 26 -295 96 -433 325 -640 148 -135
257 -247 298 -309 96 -144 136 -586 76 -842 -27 -114 -67 -211 -179 -429 -53
-104 -114 -228 -134 -275 -92 -215 -101 -351 -94 -1305 6 -717 15 -1014 42
-1315 27 -307 27 -325 16 -400 -22 -142 -128 -317 -291 -481 -119 -121 -172
-157 -355 -245 -313 -149 -468 -176 -975 -168 -464 8 -766 34 -1032 90 -67 14
-334 79 -593 144 -258 65 -551 134 -650 154 -99 20 -211 43 -250 52 -148 35
-465 173 -1090 476 -368 179 -565 269 -745 343 -291 119 -826 408 -1145 621
-209 138 -610 514 -747 700 -85 115 -158 238 -221 375 -95 203 -210 382 -337
524 -78 88 -99 124 -62 110 54 -21 146 -35 156 -25 18 18 -24 45 -193 127
-144 70 -160 80 -236 156 -186 188 -332 474 -371 729 -26 171 -7 311 61 457
91 191 383 545 526 636 78 50 274 91 584 121 94 9 172 18 174 20 16 14 -38 20
-239 26 -126 3 -238 9 -249 13 -32 10 -26 28 33 96 72 82 137 193 258 439 231
469 373 688 577 890 130 129 243 218 352 278 164 89 254 103 769 112 623 10
1144 11 1695 0z"/>
<path d="M4460 8379 c-329 -26 -654 -81 -821 -137 -518 -177 -934 -436 -1170
-730 -59 -73 -72 -102 -45 -102 23 0 125 81 240 191 160 153 297 250 519 369
200 107 492 217 687 259 279 60 600 94 890 94 246 1 320 -6 635 -58 336 -55
472 -66 890 -72 405 -6 608 2 975 39 118 11 279 21 356 22 l142 1 93 -47 c111
-56 133 -61 137 -32 2 14 -10 33 -37 57 -115 104 -195 111 -681 67 -409 -38
-551 -44 -925 -45 -417 0 -542 9 -875 66 -96 17 -215 37 -265 46 -109 18 -574
26 -745 12z"/>
<path d="M4325 8080 c-115 -4 -275 -15 -354 -24 -245 -29 -517 -110 -711 -212
-243 -128 -606 -462 -556 -511 14 -14 78 30 172 119 252 238 428 348 705 439
313 103 483 123 1049 124 234 0 431 4 438 8 41 27 -33 45 -232 57 -165 10
-199 10 -511 0z"/>
<path d="M4854 7978 c-12 -19 6 -54 61 -118 77 -91 139 -220 170 -354 35 -155
45 -156 45 -5 0 194 -35 287 -154 405 -69 68 -109 93 -122 72z"/>
<path d="M7050 7964 c-85 -8 -231 -23 -324 -34 -284 -34 -391 -63 -391 -105 0
-29 48 -31 153 -6 183 43 726 98 863 87 104 -8 166 -28 287 -92 211 -111 301
-189 357 -312 56 -121 69 -145 81 -149 33 -11 20 126 -20 212 -30 66 -118 162
-199 217 -33 22 -118 69 -190 103 -203 98 -284 108 -617 79z"/>
<path d="M6535 7645 c-70 -69 -101 -210 -91 -409 11 -200 29 -207 40 -16 7
123 35 230 86 328 23 44 40 88 38 98 -5 29 -44 29 -73 -1z"/>
<path d="M3710 7385 c-401 -51 -623 -141 -816 -333 -94 -93 -136 -161 -141
-225 -4 -46 -1 -56 26 -89 17 -20 57 -49 89 -65 50 -25 67 -28 147 -27 50 1
152 13 230 28 222 41 279 47 461 47 353 0 561 -53 958 -242 126 -60 232 -109
236 -109 22 0 235 153 291 210 72 71 89 108 89 190 -1 68 -29 118 -111 194
-183 170 -531 359 -759 413 -91 21 -555 27 -700 8z m620 -234 c203 -44 474
-182 608 -310 64 -61 69 -96 21 -143 -28 -28 -34 -30 -82 -25 -52 5 -205 65
-346 137 -94 47 -192 77 -276 86 -89 9 -93 16 -66 122 11 49 21 98 21 109 0
26 27 44 55 38 11 -3 40 -9 65 -14z m-1041 -170 c36 -23 -44 -69 -180 -106
-99 -26 -98 -27 -40 38 54 60 174 97 220 68z"/>
<path d="M7155 7143 c-227 -27 -307 -47 -434 -113 -53 -28 -138 -81 -190 -120
-147 -110 -180 -122 -400 -149 -172 -22 -197 -82 -72 -169 31 -22 88 -56 127
-75 124 -62 126 -68 142 -332 10 -167 24 -213 88 -292 45 -55 163 -139 207
-147 72 -13 155 -139 141 -212 -18 -96 -242 -352 -358 -409 -85 -41 -136 -39
-205 8 -69 48 -102 48 -147 3 -44 -44 -47 -102 -8 -154 76 -98 330 -144 459
-82 31 15 112 86 239 209 120 116 207 193 233 205 l41 18 43 -25 c24 -14 51
-22 59 -20 8 3 36 28 62 56 47 49 48 50 95 44 63 -7 206 -62 370 -143 133 -64
173 -76 173 -50 0 23 -103 110 -176 148 -38 20 -96 41 -129 47 -81 15 -144 56
-282 185 -135 126 -264 224 -445 337 -69 44 -142 97 -162 119 -51 57 -70 129
-70 276 -1 146 1 149 120 205 138 65 343 106 729 144 276 28 481 59 535 81 47
20 87 60 100 100 9 27 8 39 -6 66 -27 52 -127 142 -201 181 -105 55 -187 67
-435 66 -117 -1 -226 -4 -243 -6z m400 -223 c4 -6 -37 -10 -114 -10 -74 0
-121 4 -121 10 0 6 45 10 114 10 66 0 117 -4 121 -10z"/>
<path d="M2425 6914 c-114 -17 -226 -42 -244 -54 -12 -7 -13 -14 -4 -33 22
-47 144 -87 271 -87 107 0 106 17 -1 40 -42 9 -80 20 -83 23 -7 7 51 34 174
82 39 15 72 32 72 37 0 12 -80 8 -185 -8z"/>
<path d="M8203 6871 c-12 -6 -27 -19 -33 -30 -9 -17 -6 -23 17 -38 24 -16 64
-18 398 -23 434 -6 415 -2 544 -124 43 -41 124 -104 179 -140 129 -84 180
-148 228 -288 53 -156 51 -258 -10 -501 -38 -149 -68 -216 -120 -267 -23 -22
-120 -76 -259 -145 -188 -93 -223 -114 -225 -134 -4 -23 -2 -24 39 -17 113 18
397 151 496 232 69 57 91 99 128 246 44 181 58 293 53 424 -5 124 -16 163 -89
311 -53 107 -69 125 -174 193 -33 22 -107 78 -164 125 -57 47 -120 94 -140
104 -58 30 -140 40 -391 46 -129 3 -260 10 -290 15 -95 17 -164 20 -187 11z"/>
<path d="M1180 6830 c-175 -11 -270 -31 -337 -72 -128 -77 -300 -291 -345
-428 -20 -59 -22 -92 -26 -335 -6 -398 20 -632 84 -763 55 -112 125 -180 252
-245 115 -59 268 -117 308 -117 66 0 2 46 -247 180 -279 149 -333 292 -334
875 0 278 0 280 27 353 34 93 137 248 233 350 73 77 78 81 143 96 88 19 274
42 502 61 246 20 293 26 283 35 -13 12 -393 19 -543 10z"/>
<path d="M2530 6679 c-31 -13 -40 -26 -40 -66 0 -23 5 -33 15 -33 18 0 119 62
130 80 17 27 -54 39 -105 19z"/>
<path d="M1510 6630 c-97 -9 -178 -33 -260 -76 -190 -99 -355 -309 -436 -554
-26 -80 -28 -95 -28 -255 0 -156 2 -177 27 -260 40 -133 107 -264 161 -313 25
-23 53 -42 61 -42 46 0 95 51 95 99 0 32 -38 168 -74 264 -55 149 -71 237 -57
317 33 182 217 461 348 528 114 59 351 93 507 73 77 -10 101 -18 156 -51 128
-77 405 -185 615 -240 177 -46 247 -55 440 -54 202 1 297 17 421 74 206 93
444 315 444 414 0 39 -52 76 -106 76 -56 0 -87 -16 -144 -75 -143 -149 -449
-278 -655 -277 -151 1 -432 86 -710 214 -230 106 -272 118 -475 137 -125 12
-214 12 -330 1z"/>
<path d="M8883 6553 c-37 -14 16 -60 140 -124 156 -80 180 -115 212 -304 28
-169 35 -264 23 -318 -9 -45 -22 -62 -119 -163 -68 -70 -109 -120 -109 -133 0
-77 218 79 277 199 39 77 12 432 -47 622 -29 95 -78 135 -235 190 -78 28 -124
38 -142 31z"/>
<path d="M8382 6370 c-122 -17 -184 -46 -360 -167 -191 -131 -197 -132 -351
-63 -138 62 -208 65 -236 10 -22 -43 -18 -81 14 -133 52 -81 147 -128 310
-152 120 -19 283 -19 334 -1 52 19 76 42 102 101 34 74 80 132 123 154 88 45
269 52 392 15 30 -9 94 -36 142 -60 48 -24 105 -46 127 -50 36 -6 44 -3 71 24
70 70 11 190 -127 261 -105 53 -379 84 -541 61z"/>
<path d="M1776 6227 c-34 -34 -60 -89 -86 -182 -53 -190 -92 -224 -370 -330
-142 -53 -172 -75 -168 -119 5 -53 46 -67 219 -77 83 -4 166 -13 185 -19 43
-15 77 -56 104 -127 19 -50 21 -70 15 -141 l-6 -82 49 -53 c67 -71 145 -177
302 -407 378 -555 586 -780 1030 -1117 443 -336 698 -478 1095 -606 607 -197
1183 -269 2165 -269 538 1 826 17 1189 68 428 60 684 137 860 256 63 43 158
141 205 212 56 84 129 237 164 343 60 178 80 350 89 768 9 438 -25 840 -94
1085 -21 74 -39 108 -79 150 -42 44 -72 113 -85 191 -13 83 -44 144 -79 159
-67 28 -99 -32 -136 -252 -51 -314 -109 -416 -319 -558 -262 -178 -641 -313
-1025 -367 -177 -25 -708 -24 -980 0 -473 44 -849 111 -1295 233 -374 102
-1196 355 -1448 445 -605 217 -1245 527 -1334 647 -12 16 -26 48 -33 70 -22
85 -89 124 -134 79z m226 -508 c93 -36 542 -259 633 -314 124 -75 149 -116
166 -271 11 -101 8 -232 -6 -253 -8 -14 -126 37 -388 166 -260 128 -341 178
-414 256 -82 86 -150 246 -155 362 -4 94 30 105 164 54z m1373 -584 c77 -24
283 -87 458 -139 425 -128 447 -138 447 -210 0 -40 -68 -312 -87 -349 -18 -36
-15 -36 -223 45 -295 114 -385 146 -480 168 -52 12 -111 29 -130 38 -55 26
-230 207 -285 296 -41 66 -50 89 -53 137 -3 43 0 66 12 83 l16 25 92 -25 c51
-14 156 -45 233 -69z m5124 49 c26 -33 54 -107 49 -130 -5 -26 -55 48 -73 110
-16 51 -7 59 24 20z m-174 -300 c40 -86 103 -280 112 -339 7 -53 -9 -82 -69
-125 -78 -56 -87 -43 -113 155 -15 119 -21 369 -9 400 11 26 42 -10 79 -91z
m-5955 -101 c307 -132 413 -207 445 -314 36 -121 29 -255 -16 -300 -34 -34
-62 -24 -126 44 -102 109 -359 452 -443 591 l-24 39 30 -7 c16 -4 76 -28 134
-53z m5632 -50 c18 -39 22 -68 22 -153 1 -171 -34 -283 -100 -322 -33 -19
-190 -55 -200 -45 -3 3 -12 50 -20 104 -8 54 -24 138 -35 186 -26 108 -21 123
55 172 69 44 204 104 234 105 18 0 28 -10 44 -47z m-3267 -7 c281 -53 568
-114 638 -136 87 -27 129 -57 145 -104 14 -44 28 -251 19 -288 -10 -38 -46
-48 -180 -48 -192 0 -506 52 -738 121 -196 58 -198 61 -158 229 42 177 46 191
69 228 11 17 21 32 22 32 2 0 84 -15 183 -34z m2637 -188 c24 -12 45 -55 74
-151 31 -103 31 -142 1 -161 -53 -36 -304 -67 -545 -70 l-154 -1 -23 27 c-24
28 -36 88 -39 194 -2 91 15 99 314 144 264 39 326 42 372 18z m-1324 -13 c158
-17 364 -43 369 -49 12 -12 45 -174 46 -231 l2 -70 -35 -12 c-47 -16 -523 -17
-586 -2 -69 18 -77 37 -78 188 -1 202 3 205 282 176z m-2787 -178 c57 -25 160
-70 229 -100 148 -64 312 -126 431 -161 96 -29 130 -51 149 -96 31 -75 -13
-255 -115 -467 -57 -119 -91 -163 -125 -163 -34 0 -103 40 -340 197 -442 293
-530 363 -530 419 0 18 8 38 19 48 45 41 91 193 91 303 0 66 7 76 50 70 21 -3
84 -25 141 -50z m1392 -491 c155 -52 351 -113 435 -135 169 -45 177 -48 210
-84 34 -36 42 -117 32 -335 -12 -264 -24 -315 -76 -328 -94 -24 -530 59 -899
171 -143 44 -213 78 -225 110 -13 35 11 108 85 256 76 151 86 183 95 317 6
103 14 121 48 122 7 0 140 -43 295 -94z m3843 -212 c-57 -148 -143 -345 -154
-356 -22 -22 -26 25 -9 91 29 111 187 410 195 370 2 -10 -13 -57 -32 -105z
m-2786 -69 c84 -18 269 -41 438 -55 151 -12 174 -19 198 -55 15 -23 16 -35 5
-113 -7 -48 -25 -148 -41 -222 -49 -236 -34 -225 -330 -225 -272 1 -362 9
-396 38 -35 31 -46 148 -33 369 13 238 28 296 73 283 12 -3 50 -12 86 -20z
m2408 -17 c-3 -24 -15 -81 -27 -127 -26 -93 -24 -157 5 -178 10 -7 36 -13 58
-13 55 0 75 -13 56 -35 -30 -37 -138 -79 -304 -121 -69 -18 -102 -22 -109 -15
-8 8 -1 34 23 88 121 281 225 437 294 442 4 1 6 -18 4 -41z m-414 -57 c3 -5
-22 -64 -55 -132 -67 -136 -111 -257 -109 -298 1 -14 2 -31 1 -37 -2 -19 -76
-43 -183 -60 -147 -24 -145 -29 -68 193 97 278 102 285 220 307 47 9 99 20
115 25 40 12 73 13 79 2z m-701 -57 c33 -3 70 -10 84 -15 23 -9 25 -14 21 -53
-6 -52 -120 -292 -178 -375 -27 -38 -53 -64 -72 -70 -51 -18 -208 -33 -265
-26 -72 9 -79 26 -58 149 38 224 83 365 122 381 48 20 183 24 346 9z"/>
<path d="M4380 5845 c-9 -11 -9 -22 1 -49 10 -27 10 -41 1 -61 -24 -53 -118
-70 -467 -85 -126 -5 -252 -15 -280 -22 -46 -12 -50 -15 -53 -47 l-3 -33 63 6
c35 3 164 13 288 21 251 17 378 30 430 47 78 24 123 102 100 172 -20 60 -54
82 -80 51z"/>
<path d="M4774 5836 c-115 -26 -196 -83 -236 -164 -21 -43 -23 -60 -23 -202 0
-126 3 -164 18 -202 23 -59 95 -126 183 -169 54 -27 68 -30 89 -21 30 14 65
80 65 122 0 41 -13 65 -67 123 -24 26 -51 63 -59 82 -16 40 -19 118 -4 146 17
31 81 57 197 79 59 11 125 25 145 31 39 10 88 59 88 88 0 26 -47 69 -89 82
-58 18 -238 20 -307 5z"/>
<path d="M5200 5484 c-91 -9 -147 -25 -170 -49 -45 -48 -34 -172 20 -227 36
-36 65 -36 99 1 42 45 86 53 314 56 176 3 213 6 245 22 28 14 38 25 40 47 9
79 -149 140 -389 149 -63 3 -134 3 -159 1z"/>
<path d="M2690 3245 c52 -50 617 -341 945 -485 695 -305 1192 -481 1510 -534
390 -65 1807 -128 2202 -97 298 23 440 58 640 156 149 74 268 158 340 242 71
82 88 112 75 125 -14 14 -76 -22 -166 -99 -206 -175 -414 -281 -659 -334 -207
-45 -395 -47 -1232 -9 -982 45 -1161 62 -1420 137 -357 102 -1011 364 -1580
633 -416 196 -609 280 -648 280 -19 0 -19 -2 -7 -15z"/>
<path d="M2142 3239 c15 -46 284 -202 743 -429 518 -257 780 -368 1175 -498
275 -91 402 -125 755 -202 1044 -226 1503 -276 2736 -296 612 -10 651 -2 1008
217 283 174 311 207 311 370 0 99 -7 159 -19 159 -4 0 -13 -41 -20 -91 -14
-112 -34 -151 -106 -217 -115 -105 -483 -315 -621 -355 -77 -21 -92 -22 -509
-21 -853 1 -1419 44 -2000 150 -361 67 -1108 227 -1302 279 -372 101 -983 365
-1604 691 -262 138 -471 237 -523 250 -22 5 -28 4 -24 -7z"/>
<path d="M5892 2472 c-36 -2 -60 -7 -57 -12 8 -12 1024 -13 1043 -1 24 15
-157 21 -544 19 -208 -1 -407 -4 -442 -6z"/>
</g>
</svg>
